<svg width="32" height="32" viewBox="0 0 32 32" fill="none" xmlns="http://www.w3.org/2000/svg">
<path fill-rule="evenodd" clip-rule="evenodd" d="M13.6784 4.16786C13.4166 4.26968 13.2857 4.41512 13.3148 4.57511C13.3584 4.82238 8.02037 12.0367 6.65316 16.4147C6.23134 17.782 6.91498 17.9711 10.0276 17.3747C11.9185 17.0111 11.8457 16.6329 10.5949 20.1528C9.66401 22.7418 8.98037 24.909 8.66043 26.2326C8.22407 27.978 9.14037 28.8943 11.4094 26.5235C12.3839 25.5053 14.5947 23.2218 19.7728 17.3165C24.1654 12.3131 24.1508 12.444 20.6891 12.3131L18.551 12.2258C19.5546 11.164 23.3071 7.12051 24.4562 6.17505C25.6052 5.21509 25.9689 4.82239 24.4272 4.60421C22.6381 4.3424 16.5874 4.24059 14.8129 4.08059C14.4057 4.03696 13.8966 4.08059 13.6784 4.16786ZM22.3035 5.6369L21.5472 6.26232C19.7 7.77499 16.0492 12.124 16.0492 12.793C16.0492 13.5203 17.2711 13.4475 20.4273 13.4475C15.7729 18.8437 12.1366 23.0473 12.0493 23.0473C12.0203 23.0473 12.3549 22.0873 12.8057 20.8946C14.4929 16.3711 14.5802 15.5275 13.3875 15.6729C11.3221 15.9202 9.30037 16.1966 9.02401 16.2838C8.7768 16.3565 8.93674 15.9639 9.86759 14.2185C11.5258 11.0477 12.1948 10.1313 15.1038 5.28782C20.6454 5.53508 20.5872 5.53509 22.3035 5.6369Z" fill="#006B99"/>
</svg>
